<svg xmlns="http://www.w3.org/2000/svg" width="31" height="30" viewBox="0 0 31 30" fill="none"><g fill-rule="evenodd" clip-path="url(#a)" clip-rule="evenodd"><path fill="#F5F5F5" d="M15.5 0C7.216 0 .5 6.716.5 15c0 8.284 6.716 15 15 15 8.284 0 15-6.716 15-15 0-8.284-6.716-15-15-15Z"/><path fill="#595959" d="M10.411 11.886a5.089 5.089 0 1 1 10.178 0 5.089 5.089 0 0 1-10.178 0Zm12.845 10.907a.942.942 0 0 1-.188 1.242 11.737 11.737 0 0 1-7.568 2.75c-2.88 0-5.52-1.033-7.568-2.75a.942.942 0 0 1-.188-1.242 9.285 9.285 0 0 1 15.512 0Z"/></g><defs><clipPath id="a"><path fill="#fff" d="M.5 0h30v30H.5z"/></clipPath></defs></svg>