<svg xmlns="http://www.w3.org/2000/svg" xml:space="preserve" viewBox="0 0 3658 1000"><path fill="#FABF37" fill-rule="evenodd" d="M421.489 421.877c50.675 35.834 89.036 87.961 107.539 148.755 28.237-61.805 49.313-127.095 49.313-184.323 0-19.44-2.851-38.21-8.145-55.919-58.164 15.726-109.523 48.01-148.707 91.487" clip-rule="evenodd"/><path fill="#DA7F0A" fill-rule="evenodd" d="M421.489 421.877c39.042-42.867 91.074-75.902 148.696-91.484-3.512-11.832-8.097-23.304-13.647-33.81l-.023-.002.021.04c-1.732.86-3.454 1.739-5.168 2.631-54.31 27.189-99.655 70.191-129.879 122.625" clip-rule="evenodd"/><path fill="#A7A5A6" d="M374.062 368.956a4.777 4.777 0 0 1 4.778 4.778 4.777 4.777 0 1 1-9.555 0 4.778 4.778 0 0 1 4.777-4.778"/><path fill="#3AB6D7" fill-rule="evenodd" d="M306.361 208.802c24.059-10.776 50.393-16.863 78.439-16.863 28.654 0 55.85 6.26 80.317 17.482-20.491-16.428-44.677-28.435-71.126-34.556-17.778-3.861-36.235-5.896-55.168-5.896-.615 0-1.232-.01-1.849-.025-76.017-.534-145.182-33.792-192.265-86.47 29.159 60.259 89.453 105.357 154.26 124.361 2.116.62 4.803 1.337 7.392 1.967" clip-rule="evenodd"/><path fill="#78CB19" fill-rule="evenodd" d="M101.531 205.471c39.21-4.096 78.418-1.824 115.496 9.022-8.019-7.854-15.512-16.303-22.463-25.137-32.577-1.023-63.918 4.685-93.033 16.115" clip-rule="evenodd"/><path fill="#EE980D" fill-rule="evenodd" d="M232.703 267.042c-56.143-5.99-96.077 25.704-96.726 26.364 11.797-7.895 24.926-11.682 40.177-11.682 14.267 0 28.227 4.743 39.351 11.723 5.134-9.15 10.835-17.848 17.198-26.405" clip-rule="evenodd"/><path fill="#D13926" fill-rule="evenodd" d="M479.027 216.517c-27.914-15.681-59.115-24.727-93.372-24.727-106.891 0-193.541 87.017-193.541 194.358 0 173.441 193.541 420.963 193.541 420.963s78.764-100.739 135.8-218.713c-11.163-56.128-38.801-107.133-77.48-146.228l-.065.06c-15.262 15.137-36.27 24.489-59.465 24.489-46.637 0-84.444-37.8-84.444-84.429 0-43.937 33.569-80.023 76.46-84.046 28.389-33.277 63.304-61.18 102.566-81.727" clip-rule="evenodd"/><path fill="#231F20" d="M384.194 356.853c-13.985 0-25.323 11.337-25.323 25.325 0 13.986 11.338 25.324 25.323 25.324 13.987 0 25.324-11.338 25.324-25.324 0-13.988-11.337-25.325-25.324-25.325m-10.132 21.659a4.777 4.777 0 0 1-4.777-4.777 4.777 4.777 0 1 1 9.555 0 4.778 4.778 0 0 1-4.778 4.777"/><path fill="#F6C229" d="M221.12 256.969c-30.884 2.405-61.798 15.884-85.143 36.437 2.693-2.235 42.108-32.191 96.726-26.364a232.622 232.622 0 0 0-11.583-10.073"/><path fill="#F3B623" fill-rule="evenodd" d="M212.335 250.179h-.001c-28.768 7.107-55.858 23.114-76.357 43.227 23.266-20.498 54.341-33.982 85.143-36.438a236.943 236.943 0 0 0-8.785-6.789" clip-rule="evenodd"/><path fill="#4CAE09" fill-rule="evenodd" d="M232.703 267.042c6.271-7.704 13.229-15.763 20.678-22.775-.003.189 0 .102 0 0-27.495-16.941-58.617-29.449-92.314-35.485-19.033-3.41-58.635-3.665-59.536-3.312 3.731.488 7.765 1.215 11.508 1.886 46.327 8.3 87.548 30.589 119.664 59.686" clip-rule="evenodd"/><path fill="#B6DD57" d="M217.026 214.493c-.074-.021.074.021 0 0-36.763-10.755-76.62-12.978-115.496-9.022 6.378-.215 42.085.185 59.536 3.311 33.697 6.037 64.82 18.546 92.314 35.485-.001-.001.002 0 0 0-12.976-8.818-25.178-18.77-36.354-29.774"/><path fill="#209BC7" fill-rule="evenodd" d="M253.38 244.267c.167-.156-.18.157 0 0 11.063-10.339 23.795-19.812 37.038-27.344-.113-.043.119.043 0 0-65.397-22.187-118.436-71.226-145.71-134.45 14.065 67.021 54.116 124.722 108.672 161.794" clip-rule="evenodd"/><path fill="#4FCAE3" d="M306.361 208.802a173.058 173.058 0 0 1-7.392-1.967c-64.807-19.004-125.101-64.102-154.26-124.361 27.273 63.221 80.315 112.262 145.708 134.45a192.934 192.934 0 0 1 15.944-8.122"/><path fill="#CA3322" fill-rule="evenodd" d="M529.029 570.632c-15.474-50.839-44.841-95.609-83.675-129.866-.476.495-.958.984-1.445 1.466v.001l.002-.002.064-.06c38.681 39.094 66.318 90.1 77.481 146.227 3.708-7.672 8.383-19.54 7.573-17.766" clip-rule="evenodd"/><path fill="#A92F1E" fill-rule="evenodd" d="M421.489 421.877c-9.698 9.396-22.833 15.175-37.295 15.175-29.847 0-54.042-24.568-54.042-54.874a55.362 55.362 0 0 1 4.998-23.047c11.44-21.77 25.35-42.178 41.317-60.893-42.895 4.021-76.466 40.113-76.466 84.052 0 46.629 37.808 84.43 84.444 84.43 23.199 0 44.21-9.356 59.472-24.496a89.06 89.06 0 0 0 1.431-1.452l.001-.009a283.748 283.748 0 0 0-23.86-18.886" clip-rule="evenodd"/><path fill="#ECECEC" fill-rule="evenodd" d="M479.028 216.518c-61.342 32.102-112.097 82.133-143.878 142.614a55.354 55.354 0 0 0-4.998 23.046c0 30.306 24.196 54.874 54.042 54.874 14.485 0 27.593-5.753 37.295-15.175 30.225-52.538 75.491-95.397 129.879-122.625a301.958 301.958 0 0 1 5.169-2.631c-17.489-33.7-44.526-61.605-77.509-80.103m-94.834 190.985c-13.986 0-25.324-11.338-25.324-25.324 0-13.987 11.338-25.325 25.324-25.325 13.987 0 25.324 11.338 25.324 25.325 0 13.986-11.337 25.324-25.324 25.324" clip-rule="evenodd"/><path fill="#6A3460" d="M3466.338 599.399c-17.395-14.351-42.617-20.004-68.274-20.004-42.616 0-85.668 20.874-91.756 70.013-4.784 38.703 27.396 52.619 56.967 66.1 18.699 8.697 35.224 16.09 33.485 31.31-2.175 16.525-16.96 20.439-35.225 20.439-24.352 0-53.488-10.437-63.924-14.351l-15.221 45.226c12.611 8.262 43.922 15.22 72.188 15.22 62.185 0 93.931-26.526 100.018-73.057 4.349-38.703-27.396-50.444-53.053-60.881-20.439-8.262-40.008-16.96-38.268-32.18 1.739-14.351 14.35-19.134 30.006-19.134 23.917 0 54.358 11.306 59.141 17.829l13.916-46.53zm-281.791 190.905c4.783 15.656 20.004 22.613 39.572 22.613 14.351 0 30.441-3.913 46.096-10.871l2.174-39.573c-4.348 2.609-10.002 4.349-15.655 4.349-7.392 0-13.48-3.479-12.611-12.176l19.569-156.987c-27.831-12.611-53.923-17.394-78.276-17.394-87.842 0-122.196 59.576-130.024 119.153-7.393 59.141 9.567 113.065 75.666 113.065 22.178 0 41.747-10.002 53.489-22.179m.434-33.049c-11.306 7.392-23.917 9.567-32.179 9.567-32.181 0-41.312-30.876-37.399-63.49 4.784-37.399 18.699-76.972 60.446-76.972 8.263 0 14.786.435 23.918 5.654l-14.786 125.241zm-269.615-21.309c-4.783 37.399-9.567 77.406 56.967 77.406 7.393 0 29.137-.869 48.705-9.132l-.869-43.051c-12.177 3.044-24.353 3.913-30.006 3.913-14.351 0-16.96-7.392-15.22-23.482l14.35-114.805h58.272l8.262-42.182h-61.315l6.958-55.662-60.012 5.218-6.523 50.879h-39.138l-4.783 41.747h37.833l-13.481 109.151zm-131.763 54.358c4.784 15.656 20.004 22.613 39.573 22.613 14.351 0 30.441-3.913 46.096-10.871l2.174-39.573c-4.349 2.609-10.002 4.349-15.655 4.349-7.393 0-13.481-3.479-12.611-12.176l19.569-156.987c-27.832-12.611-53.924-17.394-78.276-17.394-87.842 0-122.197 59.576-130.024 119.153-7.393 59.141 9.567 113.065 75.666 113.065 22.178 0 41.747-10.002 53.488-22.179m.435-33.049c-11.306 7.392-23.917 9.567-32.18 9.567-32.18 0-41.312-30.876-37.398-63.49 4.784-37.399 18.699-76.972 60.446-76.972 8.263 0 14.786.435 23.918 5.654l-14.786 125.241zm-212.651-116.109c10.436-6.958 33.919-10.437 52.618-10.437 5.654 0 16.09.435 22.613 1.305l12.176-49.575c-6.957-1.304-13.915-1.739-20.004-1.739-23.917 0-49.139 9.132-68.273 24.787v-20.874h-51.749l-26.962 223.086h59.142l20.439-166.553zm-151.327-90.887h60.446l7.827-64.36h-60.446l-7.827 64.36zm56.097 34.354h-60.446l-26.962 223.086h60.447l26.961-223.086zm-240.909 73.493 11.307-94.366c8.697-1.739 19.134-3.479 30.441-3.479 25.657 0 52.183 9.567 46.53 53.054-4.783 39.137-30.441 47.4-59.142 47.4-10.001 0-20.003-.435-29.136-2.609m-80.884 149.593h62.62l13.046-107.412c15.22 3.479 29.571 5.219 43.922 5.219 55.662 0 101.323-27.831 109.585-93.931 10.002-81.754-43.921-97.41-100.888-97.41-33.92 0-69.144 3.479-93.496 8.698l-34.789 284.836zm-16.958-208.3c-17.395-14.351-42.617-20.004-68.274-20.004-42.617 0-85.668 20.874-91.756 70.013-4.784 38.703 27.396 52.619 56.967 66.1 18.699 8.697 35.224 16.09 33.485 31.31-2.175 16.525-16.96 20.439-35.225 20.439-24.352 0-53.488-10.437-63.925-14.351l-15.22 45.226c12.611 8.262 43.921 15.22 72.188 15.22 62.185 0 93.93-26.526 100.018-73.057 4.349-38.703-27.396-50.444-53.053-60.881-20.439-8.262-40.008-16.96-38.268-32.18 1.739-14.351 14.351-19.134 30.006-19.134 23.917 0 54.357 11.306 59.141 17.829l13.916-46.53zm-285.707 28.266c24.352 0 40.442 10.872 33.484 69.578-6.957 55.228-26.526 69.579-50.879 69.579-23.917 0-40.442-14.351-33.484-69.579 6.958-58.706 26.526-69.578 50.879-69.578m-25.222 185.687c63.055 0 106.976-31.31 117.413-116.543 10.437-86.104-23.917-116.109-86.103-116.109-60.011 0-104.802 30.875-115.239 116.543-10.872 85.669 24.352 116.109 83.929 116.109m-166.55-172.206c10.437-6.958 33.919-10.437 52.618-10.437 5.654 0 16.09.435 22.613 1.305l12.177-49.575c-6.958-1.304-13.916-1.739-20.004-1.739-23.918 0-49.14 9.132-68.274 24.787v-20.874h-51.749l-26.961 223.086h59.141l20.439-166.553zm-153.504 6.088c-3.479 28.701-33.919 43.052-60.011 43.052-5.653 0-12.611-.87-18.699-3.044 6.088-36.964 26.092-61.316 59.141-61.316 13.046 0 20.874 10.871 19.569 21.308m-10.437-65.665c-84.363 0-122.631 59.577-130.459 121.328-6.958 58.706 16.96 108.716 92.191 108.716 43.487 0 74.797-9.567 83.929-13.046l-.869-43.921c-12.612 4.783-33.485 9.567-54.359 9.567-32.614 0-62.185-10.437-59.141-43.052 8.697 2.609 19.134 3.914 29.571 3.914 43.051 0 100.888-19.569 108.281-78.711 5.218-43.921-24.787-64.795-69.144-64.795m-200.904-31.31h60.446l7.827-64.36h-60.446l-7.827 64.36zm56.097 34.354h-60.446l-26.092 214.824c-4.349 36.093-18.264 44.791-33.919 44.791-11.307 0-23.048-1.305-34.355-4.784l-10.871 45.226c14.35 6.088 29.571 9.132 45.226 9.132 43.051 0 84.798-16.525 94.8-96.975l25.657-212.214zm-202.211 205.691c4.784 15.656 20.004 22.613 39.573 22.613 14.35 0 30.44-3.913 46.096-10.871l2.174-39.573c-4.349 2.609-10.002 4.349-15.655 4.349-7.393 0-13.481-3.479-12.611-12.176l19.569-156.987c-27.832-12.611-53.924-17.394-78.276-17.394-87.843 0-122.197 59.576-130.025 119.153-7.392 59.141 9.567 113.065 75.667 113.065 22.178 0 41.747-10.002 53.488-22.179m.435-33.049c-11.306 7.392-23.917 9.567-32.18 9.567-32.18 0-41.312-30.876-37.398-63.49 4.783-37.399 18.699-76.972 60.446-76.972 8.262 0 14.785.435 23.917 5.654l-14.785 125.241zm-206.12-206.996h60.446l7.828-64.36h-60.446l-7.828 64.36zm56.098 34.354h-60.447l-26.961 223.086h60.446l26.962-223.086zM734.554 807.699h61.751l132.633-290.49h-62.185l-92.626 217.433-38.703-217.433h-62.186l61.316 290.49z"/></svg>